<?xml version="1.0" standalone="no"?>
<!DOCTYPE svg PUBLIC "-//W3C//DTD SVG 20010904//EN"
 "http://www.w3.org/TR/2001/REC-SVG-20010904/DTD/svg10.dtd">
<svg version="1.0" xmlns="http://www.w3.org/2000/svg"
 width="2000.000000pt" height="338.000000pt" viewBox="0 0 2000.000000 338.000000"
 preserveAspectRatio="xMidYMid meet">

<g transform="translate(0.000000,338.000000) scale(0.100000,-0.100000)"
fill="#000000" stroke="none">
<path d="M16580 1690 l0 -1690 465 0 465 0 0 1690 0 1690 -465 0 -465 0 0
-1690z"/>
<path d="M17720 1690 l0 -1690 460 0 460 0 0 1690 0 1690 -460 0 -460 0 0
-1690z"/>
<path d="M3115 2909 c-280 -43 -426 -229 -442 -565 -7 -140 9 -231 57 -332 50
-106 86 -149 326 -392 243 -247 269 -282 299 -397 19 -73 20 -213 1 -258 -17
-41 -42 -55 -96 -55 -100 0 -114 32 -118 278 l-4 192 -235 0 -235 0 4 -212 c5
-241 19 -318 74 -435 87 -182 247 -263 524 -266 206 -1 311 34 411 140 92 97
141 237 161 456 20 221 -13 397 -103 552 -33 55 -96 124 -298 325 -285 282
-311 318 -311 418 0 46 4 58 29 83 25 24 37 29 78 29 84 -1 103 -31 103 -164
l0 -96 246 0 247 0 -6 108 c-15 258 -105 443 -256 526 -102 55 -319 87 -456
65z"/>
<path d="M7352 2910 c-205 -29 -360 -142 -422 -308 -49 -129 -50 -142 -50
-887 0 -651 2 -707 19 -793 49 -233 183 -384 394 -439 84 -22 270 -22 357 1
198 51 329 188 385 401 30 113 37 314 32 935 -4 580 -5 608 -26 689 -54 209
-176 335 -374 385 -74 19 -234 27 -315 16z m187 -459 c11 -11 24 -37 30 -58
15 -52 15 -1331 0 -1393 -15 -64 -42 -90 -96 -90 -61 0 -78 12 -100 67 -17 45
-18 92 -18 713 0 366 3 677 7 692 5 14 20 40 34 57 22 27 32 31 75 31 35 0 54
-5 68 -19z"/>
<path d="M12672 2910 c-235 -33 -374 -163 -444 -415 -22 -79 -23 -91 -26 -804
-3 -693 -2 -727 17 -802 27 -106 66 -182 129 -250 95 -104 215 -159 372 -173
85 -8 230 7 305 31 183 58 299 187 340 379 11 51 15 143 15 357 l0 287 -240 0
-240 0 0 -242 c0 -143 -5 -259 -11 -282 -16 -59 -49 -86 -104 -86 -55 0 -90
31 -102 89 -5 20 -8 335 -8 701 0 708 1 722 48 755 32 22 112 20 136 -4 33
-33 41 -89 41 -303 l0 -208 241 0 241 0 -4 273 c-5 297 -10 325 -71 440 -58
110 -189 205 -331 242 -76 19 -223 26 -304 15z"/>
<path d="M15265 2909 c-272 -42 -419 -228 -440 -556 -11 -176 35 -336 137
-473 23 -30 141 -156 263 -280 123 -124 231 -243 243 -265 68 -135 78 -340 20
-402 -31 -33 -115 -33 -146 -1 -37 40 -42 73 -42 264 l0 184 -240 0 -240 0 0
-148 c0 -468 106 -666 397 -743 104 -28 309 -31 400 -6 192 51 297 170 355
402 19 76 22 118 23 275 0 196 -7 241 -52 354 -48 119 -108 192 -359 439 -247
244 -287 293 -300 374 -8 50 10 107 39 128 28 19 106 19 134 0 29 -21 43 -73
43 -167 l0 -78 245 0 245 0 0 33 c0 67 -21 215 -41 287 -54 200 -167 314 -361
364 -74 19 -247 27 -323 15z"/>
<path d="M719 1973 c0 -505 -4 -939 -8 -966 -11 -66 -42 -97 -98 -97 -109 0
-113 15 -113 400 l0 310 -241 0 -241 0 5 -352 c5 -388 9 -417 69 -530 65 -122
192 -214 348 -254 80 -21 245 -24 320 -5 161 39 296 144 364 282 75 151 70 75
73 1157 l4 972 -241 0 -240 0 -1 -917z"/>
<path d="M1362 1913 l3 -978 28 -90 c34 -108 64 -163 129 -231 97 -103 224
-147 423 -147 256 -1 419 87 508 273 74 157 70 103 74 1183 l4 967 -236 0
-235 0 0 -915 c0 -636 -3 -930 -11 -966 -16 -72 -44 -99 -107 -99 -57 0 -84
22 -101 85 -7 28 -11 329 -11 968 l0 927 -235 0 -236 0 3 -977z"/>
<path d="M3930 2660 l0 -230 145 0 145 0 0 -970 0 -970 240 0 240 0 0 970 0
970 140 0 140 0 0 230 0 230 -525 0 -525 0 0 -230z"/>
<path d="M5780 1690 l0 -1200 240 0 240 0 0 545 0 545 230 0 230 0 0 230 0
230 -230 0 -230 0 0 195 0 195 240 0 240 0 0 230 0 230 -480 0 -480 0 0 -1200z"/>
<path d="M8260 1690 l0 -1200 245 0 245 0 0 548 0 548 60 -7 c124 -14 120 4
120 -594 l0 -495 235 0 235 0 3 383 c1 210 2 436 1 502 -2 198 -40 292 -141
341 l-54 27 43 24 c117 66 167 169 183 383 9 109 -11 350 -36 447 -32 128 -97
214 -199 262 l-55 26 -442 3 -443 3 0 -1201z m665 737 c23 -19 28 -34 36 -107
18 -155 -11 -289 -66 -310 -15 -6 -53 -10 -86 -10 l-59 0 0 225 0 225 74 0
c63 0 79 -3 101 -23z"/>
<path d="M10250 1690 l0 -1200 240 0 240 0 0 572 c0 314 2 569 5 566 3 -3 63
-259 133 -569 l128 -564 247 -3 c138 -1 247 2 247 6 0 5 -72 299 -159 652
l-160 643 130 531 c71 292 132 539 135 549 5 16 -11 17 -238 17 l-243 0 -110
-472 -110 -473 -3 473 -2 472 -240 0 -240 0 0 -1200z"/>
<path d="M11560 1690 l0 -1200 230 0 230 0 0 1200 0 1200 -230 0 -230 0 0
-1200z"/>
<path d="M13550 1690 l0 -1200 235 0 235 0 0 572 c0 314 3 569 6 565 3 -3 63
-259 133 -569 l128 -563 246 -3 c198 -2 247 0 247 11 0 7 -72 300 -159 652
l-159 639 129 530 c72 292 132 539 135 549 5 16 -11 17 -238 17 l-243 0 -104
-453 c-58 -248 -108 -461 -112 -472 -4 -11 -8 193 -8 453 l-1 472 -235 0 -235
0 0 -1200z"/>
</g>
</svg>
