<?xml version="1.0" standalone="no"?>
<!DOCTYPE svg PUBLIC "-//W3C//DTD SVG 20010904//EN"
 "http://www.w3.org/TR/2001/REC-SVG-20010904/DTD/svg10.dtd">
<svg version="1.0" xmlns="http://www.w3.org/2000/svg"
 width="225.000000pt" height="225.000000pt" viewBox="0 0 225.000000 225.000000"
 preserveAspectRatio="xMidYMid meet">

<g transform="translate(0.000000,225.000000) scale(0.100000,-0.100000)"
fill="#000000" stroke="none">
<path d="M495 2151 c-204 -59 -384 -228 -452 -422 -64 -184 -53 -365 32 -537
46 -92 54 -101 379 -435 183 -188 404 -418 492 -510 122 -129 164 -167 181
-165 13 2 91 76 194 183 95 99 316 327 490 506 313 323 318 328 362 420 58
122 72 181 71 309 0 123 -19 203 -70 308 -67 138 -226 276 -377 330 -85 30
-217 40 -297 23 -125 -27 -252 -117 -330 -234 -23 -34 -45 -60 -48 -57 -4 3
-24 31 -45 62 -45 68 -128 145 -196 181 -104 57 -266 73 -386 38z m227 -62
c140 -30 270 -137 342 -281 52 -106 68 -106 122 -1 49 98 145 198 230 241 156
79 332 59 490 -54 124 -88 218 -223 250 -360 22 -95 15 -246 -15 -334 -43
-124 -81 -169 -455 -554 -199 -204 -406 -417 -462 -475 l-101 -104 -89 94
c-49 52 -138 146 -199 209 -60 63 -220 228 -355 365 -136 138 -264 273 -285
300 -84 110 -132 269 -120 402 13 157 64 265 180 380 143 141 314 204 467 172z"/>
</g>
</svg>
